<svg xmlns:inkscape="http://www.inkscape.org/namespaces/inkscape" xmlns:sodipodi="http://sodipodi.sourceforge.net/DTD/sodipodi-0.dtd" xmlns="http://www.w3.org/2000/svg" xmlns:svg="http://www.w3.org/2000/svg" version="1.1" id="svg1361" inkscape:version="1.2.2 (b0a84865, 2022-12-01)" sodipodi:docname="nextwave10.svg" inkscape:export-filename="nextwave10.png" inkscape:export-xdpi="96" inkscape:export-ydpi="96" viewBox="30.46 26.58 75 50">
  <sodipodi:namedview id="namedview1363" pagecolor="#ffffff" bordercolor="#000000" borderopacity="0.25" inkscape:showpageshadow="2" inkscape:pageopacity="0.0" inkscape:pagecheckerboard="0" inkscape:deskcolor="#d1d1d1" inkscape:document-units="mm" showgrid="false" inkscape:zoom="0.84096521" inkscape:cx="444.13252" inkscape:cy="280.03537" inkscape:window-width="1920" inkscape:window-height="1027" inkscape:window-x="3648" inkscape:window-y="25" inkscape:window-maximized="1" inkscape:current-layer="layer1"/>
  <defs id="defs1358">
    <inkscape:path-effect effect="fillet_chamfer" id="path-effect284-6" is_visible="true" lpeversion="1" nodesatellites_param="F,1,0,1,0,0.2,0,30 @ F,1,0,1,0,0.0043063262,0,30 @ F,1,0,1,0,0.2,0,30 @ F,1,0,1,0,0,0,30" unit="px" method="auto" mode="F" radius="20" chamfer_steps="30" flexible="true" use_knot_distance="true" apply_no_radius="true" apply_with_radius="true" only_selected="false" hide_knots="false"/>
    <inkscape:path-effect effect="fillet_chamfer" id="path-effect284-3-0" is_visible="true" lpeversion="1" nodesatellites_param="F,1,0,1,0,0.2,0,30 @ F,1,0,1,0,0,0,30 @ F,1,0,1,0,0.2,0,30 @ F,1,0,1,0,0,0,30" unit="px" method="auto" mode="F" radius="20" chamfer_steps="30" flexible="true" use_knot_distance="true" apply_no_radius="true" apply_with_radius="true" only_selected="false" hide_knots="false"/>
    <inkscape:path-effect effect="fillet_chamfer" id="path-effect284-5-4" is_visible="true" lpeversion="1" nodesatellites_param="F,1,0,1,0,0.2,0,30 @ F,1,0,1,0,0,0,30 @ F,1,0,1,0,0.2,0,30 @ F,1,0,1,0,0,0,30" unit="px" method="auto" mode="F" radius="20" chamfer_steps="30" flexible="true" use_knot_distance="true" apply_no_radius="true" apply_with_radius="true" only_selected="false" hide_knots="false"/>
    <inkscape:path-effect effect="fillet_chamfer" id="path-effect284-5-9-9" is_visible="true" lpeversion="1" nodesatellites_param="F,1,0,1,0,0.2,0,30 @ F,1,0,1,0,0,0,30 @ F,1,0,1,0,0.2,0,30 @ F,1,0,1,0,0,0,30" unit="px" method="auto" mode="F" radius="20" chamfer_steps="30" flexible="true" use_knot_distance="true" apply_no_radius="true" apply_with_radius="true" only_selected="false" hide_knots="false"/>
  </defs>
  <g inkscape:label="Layer 1" inkscape:groupmode="layer" id="layer1">
    <path style="fill:#005580;fill-opacity:0.8;stroke-width:3" id="rect234-7-4" width="15" height="35" x="50.457626" y="41.580509" ry="0" inkscape:path-effect="#path-effect284-6" d="m 53.457626,41.580509 h 11.849279 a 0.15072142,0.15072142 45 0 1 0.150721,0.150722 v 31.849278 a 3,3 135 0 1 -3,3 h -12 v -32 a 3,3 135 0 1 3,-3 z" sodipodi:type="rect"/>
    <path style="fill:#005580;fill-opacity:0.9;stroke-width:3" id="rect234-7-9-5" width="15" height="50" x="70.457619" y="26.580509" ry="0" inkscape:path-effect="#path-effect284-3-0" d="m 73.457619,26.580509 12,0 v 47 a 3,3 135 0 1 -3,3 h -12 v -47 a 3,3 135 0 1 3,-3 z" sodipodi:type="rect"/>
    <path style="fill:#005580;fill-opacity:0.5;stroke-width:3" id="rect234-7-1-0" width="15" height="20" x="30.457626" y="56.580509" ry="0" inkscape:path-effect="#path-effect284-5-4" d="m 33.457626,56.580509 h 12 v 17 a 3,3 135 0 1 -3,3 h -12 v -17 a 3,3 135 0 1 3,-3 z" sodipodi:type="rect"/>
    <path style="fill:#005580;fill-opacity:0.66;stroke-width:3" id="rect234-7-1-9-6" width="15" height="20" x="90.457619" y="56.580509" ry="0" inkscape:path-effect="#path-effect284-5-9-9" d="m 93.457619,56.580509 h 12.000001 v 17 a 3,3 135 0 1 -3,3 H 90.457619 v -17 a 3,3 135 0 1 3,-3 z" sodipodi:type="rect"/>
  </g>
</svg>