<svg xmlns:inkscape="http://www.inkscape.org/namespaces/inkscape" xmlns:sodipodi="http://sodipodi.sourceforge.net/DTD/sodipodi-0.dtd" xmlns="http://www.w3.org/2000/svg" xmlns:svg="http://www.w3.org/2000/svg" version="1.1" id="svg5435" inkscape:version="1.2.2 (b0a84865, 2022-12-01)" sodipodi:docname="nextwave13.svg" inkscape:export-filename="nextwave12.svg" inkscape:export-xdpi="300" inkscape:export-ydpi="300" viewBox="0 0 186 160">
  <sodipodi:namedview id="namedview5437" pagecolor="#ffffff" bordercolor="#000000" borderopacity="0.25" inkscape:showpageshadow="2" inkscape:pageopacity="0.0" inkscape:pagecheckerboard="0" inkscape:deskcolor="#d1d1d1" inkscape:document-units="mm" showgrid="false" inkscape:zoom="1" inkscape:cx="590.5" inkscape:cy="348.5" inkscape:window-width="1920" inkscape:window-height="1027" inkscape:window-x="3648" inkscape:window-y="25" inkscape:window-maximized="1" inkscape:current-layer="layer1" showguides="true"/>
  <defs id="defs5432">
    <inkscape:path-effect effect="fillet_chamfer" id="path-effect284-6" is_visible="true" lpeversion="1" nodesatellites_param="F,1,0,1,0,0.2,0,30 @ F,1,0,1,0,0.0043063262,0,30 @ F,1,0,1,0,0.2,0,30 @ F,1,0,1,0,0,0,30" unit="px" method="auto" mode="F" radius="20" chamfer_steps="30" flexible="true" use_knot_distance="true" apply_no_radius="true" apply_with_radius="true" only_selected="false" hide_knots="false"/>
    <inkscape:path-effect effect="fillet_chamfer" id="path-effect284-5-4" is_visible="true" lpeversion="1" nodesatellites_param="F,1,0,1,0,0.2,0,30 @ F,1,0,1,0,0,0,30 @ F,1,0,1,0,0.2,0,30 @ F,1,0,1,0,0,0,30" unit="px" method="auto" mode="F" radius="20" chamfer_steps="30" flexible="true" use_knot_distance="true" apply_no_radius="true" apply_with_radius="true" only_selected="false" hide_knots="false"/>
  </defs>
  <g inkscape:label="Layer 1" inkscape:groupmode="layer" id="layer1">
    <path id="rect-4" d="M 157.2,0 H 186 v 152.00001 a 7.2,8 0 0 1 -7.2,8 H 150 V 8 a 7.2,8 0 0 1 7.2,-8 z" style="fill:#285078;fill-opacity:1;stroke-width:1.125" inkscape:label="rect-4"/>
    <path style="fill:#78a0c8;fill-opacity:1;stroke-width:1.55265" id="rect-3" width="36" height="70" x="100" y="90" ry="0" sodipodi:type="rect" inkscape:export-filename=".blue2.png" inkscape:export-xdpi="169.33334" inkscape:export-ydpi="169.33334" d="m 107.2,90 h 28.49856 A 0.30144283,0.30144283 45 0 1 136,90.301443 L 136,152.8 a 7.2,7.2 135 0 1 -7.2,7.2 H 100 V 97.2 a 7.2,7.2 135 0 1 7.2,-7.2 z" inkscape:path-effect="#path-effect284-6" inkscape:label="rect-3"/>
    <path style="fill:#5078a0;fill-opacity:1;stroke-width:1.0113" id="rect-2" width="36" height="110" x="50" y="50" ry="0" inkscape:path-effect="#path-effect284-5-4" d="M 57.2,50 H 86 V 152.8 A 7.2,7.2 135 0 1 78.8,160 H 50 V 57.2 A 7.2,7.2 135 0 1 57.2,50 Z" sodipodi:type="rect" inkscape:label="rect-2"/>
    <path id="rect-1" d="M 7.2,0 H 36 v 152 a 7.2,8 0 0 1 -7.2,8 H 0 V 8 A 7.2,8 0 0 1 7.2,0 Z" style="fill:#28506e;fill-opacity:1;stroke-width:1.125" inkscape:label="rect-1"/>
  </g>
</svg>